<svg width="230" height="201" viewBox="0 0 230 201" fill="none" xmlns="http://www.w3.org/2000/svg">
<path d="M143.375 51.4136C144.439 47.4089 150.133 47.4089 151.197 51.4136C159.295 81.8997 183.088 105.8 213.555 113.975C217.538 115.044 217.538 120.696 213.555 121.765C183.088 129.94 159.295 153.842 151.197 184.328C150.133 188.332 144.439 188.332 143.375 184.328C135.277 153.842 111.484 129.94 81.0175 121.765C77.0344 120.696 77.0343 115.044 81.0175 113.975C111.484 105.8 135.277 81.8997 143.375 51.4136Z" fill="#F1F3F4" stroke="#EC4899"/>
<path d="M93.8848 16.6104C94.9443 12.6228 100.616 12.6228 101.676 16.6104C109.744 46.9836 133.448 70.7961 163.802 78.9404C167.769 80.0048 167.769 85.6339 163.802 86.6982C133.448 94.8426 109.744 118.655 101.676 149.028C100.616 153.016 94.9442 153.016 93.8848 149.028C85.8164 118.655 62.1127 94.8426 31.7589 86.6982C27.7924 85.6337 27.7924 80.0049 31.7589 78.9404C62.1127 70.7961 85.8164 46.9836 93.8848 16.6104Z" stroke="#EC4899"/>
<path d="M162.106 13.4375C162.212 12.3993 163.724 12.3993 163.83 13.4375C164.412 19.1596 168.939 23.6863 174.661 24.2637C175.7 24.3684 175.7 25.8816 174.661 25.9863C168.939 26.5637 164.412 31.0904 163.83 36.8125C163.724 37.8507 162.212 37.8507 162.106 36.8125C161.543 31.269 157.276 26.8473 151.807 26.0518L151.275 25.9863C150.269 25.8849 150.237 24.4615 151.18 24.2773L151.275 24.2637C156.997 23.6863 161.524 19.1596 162.106 13.4375Z" fill="#F1F3F4" stroke="#EC4899"/>
<path d="M15.374 49.3959C15.4644 49.3959 15.5439 49.4252 15.5977 49.4692C15.633 49.4981 15.6679 49.542 15.6885 49.6127L15.7041 49.6928C16.0691 53.2576 18.8924 56.08 22.459 56.437C22.5792 56.4491 22.6434 56.4959 22.6816 56.5424C22.7254 56.5957 22.7549 56.6743 22.7549 56.7641C22.7549 56.8539 22.7254 56.9325 22.6816 56.9858C22.6434 57.0323 22.5792 57.0791 22.459 57.0912C18.8924 57.4482 16.0691 60.2706 15.7041 63.8354C15.6917 63.9554 15.6446 64.0195 15.5977 64.058C15.5438 64.1021 15.4644 64.1323 15.374 64.1323C15.2838 64.1322 15.2051 64.102 15.1514 64.058C15.1161 64.0291 15.0802 63.9862 15.0596 63.9155L15.0449 63.8354C14.6913 60.3819 12.0306 57.6246 8.62207 57.1313L8.29004 57.0912C8.16973 57.0792 8.10566 57.0323 8.06738 56.9858C8.02363 56.9325 7.99417 56.8539 7.99414 56.7641C7.99414 56.6742 8.02361 56.5957 8.06738 56.5424C8.09611 56.5074 8.13916 56.472 8.20996 56.4516L8.29004 56.437C11.8566 56.08 14.6799 53.2576 15.0449 49.6928C15.0573 49.5725 15.1043 49.5077 15.1514 49.4692C15.2051 49.4253 15.2839 49.396 15.374 49.3959Z" fill="#F1F3F4" stroke="#EC4899"/>
</svg>
