<svg width="22" height="21" viewBox="0 0 22 21" fill="none" xmlns="http://www.w3.org/2000/svg">
<path d="M17 15.98H11.01C9.91 15.98 9.06 16.92 8.53 17.88C8.11045 18.6672 7.43979 19.2917 6.62462 19.654C5.80945 20.0163 4.89656 20.0957 4.03107 19.8796C3.16558 19.6635 2.39715 19.1643 1.84795 18.4614C1.29874 17.7584 1.00028 16.8921 1 16C1.01 15.3 1.2 14.6 1.57 14M5 16L8.13 10.22C8.66 9.25 8.23 8.04 7.63 7.12C7.34681 6.6671 7.15721 6.16207 7.07236 5.63471C6.98751 5.10735 7.00915 4.56833 7.13599 4.04947C7.26283 3.5306 7.49231 3.04239 7.81088 2.61365C8.12946 2.18491 8.53068 1.82431 8.99087 1.55314C9.45106 1.28197 9.9609 1.10571 10.4903 1.03477C11.0197 0.963827 11.558 0.999637 12.0733 1.14009C12.5887 1.28053 13.0707 1.52278 13.4909 1.85252C13.9111 2.18227 14.261 2.59283 14.52 3.06M11 5L14.13 10.73C14.66 11.7 15.9 12 17 12C18.0609 12 19.0783 12.4214 19.8284 13.1716C20.5786 13.9217 21 14.9391 21 16C21 17.0609 20.5786 18.0783 19.8284 18.8284C19.0783 19.5786 18.0609 20 17 20" stroke="#00A6F4" stroke-width="2" stroke-linecap="round" stroke-linejoin="round"/>
</svg>
